<?xml version="1.0" encoding="UTF-8" standalone="no"?> <!-- Created with Vectornator for iOS (http://vectornator.io/) --><!DOCTYPE svg PUBLIC "-//W3C//DTD SVG 1.1//EN" "http://www.w3.org/Graphics/SVG/1.1/DTD/svg11.dtd">
<svg height="100%" style="fill-rule:nonzero;clip-rule:evenodd;stroke-linecap:round;stroke-linejoin:round;" xmlns:xlink="http://www.w3.org/1999/xlink" xmlns="http://www.w3.org/2000/svg" xml:space="preserve" width="100%" xmlns:vectornator="http://vectornator.io" version="1.1" viewBox="0 0 1190.7 841.995">
<metadata>
<vectornator:setting key="DimensionsVisible" value="1"/>
<vectornator:setting key="PencilOnly" value="0"/>
<vectornator:setting key="SnapToPoints" value="0"/>
<vectornator:setting key="OutlineMode" value="0"/>
<vectornator:setting key="CMYKEnabledKey" value="0"/>
<vectornator:setting key="RulersVisible" value="1"/>
<vectornator:setting key="SnapToEdges" value="0"/>
<vectornator:setting key="GuidesVisible" value="1"/>
<vectornator:setting key="DisplayWhiteBackground" value="0"/>
<vectornator:setting key="doHistoryDisabled" value="0"/>
<vectornator:setting key="SnapToGuides" value="1"/>
<vectornator:setting key="TimeLapseWatermarkDisabled" value="0"/>
<vectornator:setting key="Units" value="Millimeters"/>
<vectornator:setting key="DynamicGuides" value="0"/>
<vectornator:setting key="IsolateActiveLayer" value="0"/>
<vectornator:setting key="SnapToGrid" value="1"/>
</metadata>
<defs/>
<g id="Layer 1" vectornator:layerName="Layer 1">
<g opacity="1">
<g opacity="1">
<path stroke="#141414" stroke-width="20" d="M681.02+378.185L681.02+463.235L595.97+505.76L510.92+463.235L510.92+378.185L595.97+335.66L681.02+378.185Z" fill="none" stroke-linecap="round" opacity="1" stroke-linejoin="round"/>
<path stroke="#141414" stroke-width="20" d="M681.02+378.185L595.97+420.71L595.97+505.76L595.97+420.71L510.92+378.185" fill="none" stroke-linecap="round" opacity="1" stroke-linejoin="round"/>
</g>
<g opacity="1">
<path stroke="#141414" stroke-width="20" d="M681.02+598.185L681.02+683.235L595.97+725.76L510.92+683.235L510.92+598.185L595.97+555.66L681.02+598.185Z" fill="none" stroke-linecap="round" opacity="1" stroke-linejoin="round"/>
<path stroke="#141414" stroke-width="20" d="M681.02+598.185L595.97+640.71L595.97+725.76L595.97+640.71L510.92+598.185" fill="none" stroke-linecap="round" opacity="1" stroke-linejoin="round"/>
</g>
<g opacity="1">
<path stroke="#141414" stroke-width="20" d="M430.92+508.285L430.92+593.335L345.87+635.86L260.82+593.335L260.82+508.285L345.87+465.76L430.92+508.285Z" fill="none" stroke-linecap="round" opacity="1" stroke-linejoin="round"/>
<path stroke="#141414" stroke-width="20" d="M430.92+508.285L345.87+550.81L345.87+635.86L345.87+550.81L260.82+508.285" fill="none" stroke-linecap="round" opacity="1" stroke-linejoin="round"/>
</g>
<g opacity="1">
<path stroke="#141414" stroke-width="20" d="M930.92+508.285L930.92+593.335L845.87+635.86L760.82+593.335L760.82+508.285L845.87+465.76L930.92+508.285Z" fill="none" stroke-linecap="round" opacity="1" stroke-linejoin="round"/>
<path stroke="#141414" stroke-width="20" d="M930.92+508.285L845.87+550.81L845.87+635.86L845.87+550.81L760.82+508.285" fill="none" stroke-linecap="round" opacity="1" stroke-linejoin="round"/>
</g>
<g opacity="1">
<path stroke="#141414" stroke-width="20" d="M681.02+158.185L681.02+243.235L595.97+285.76L510.92+243.235L510.92+158.185L595.97+115.66L681.02+158.185Z" fill="none" stroke-linecap="round" opacity="1" stroke-linejoin="round"/>
<path stroke="#141414" stroke-width="20" d="M681.02+158.185L595.97+200.71L595.97+285.76L595.97+200.71L510.92+158.185" fill="none" stroke-linecap="round" opacity="1" stroke-linejoin="round"/>
</g>
<g opacity="1">
<path stroke="#141414" stroke-width="20" d="M430.92+258.185L430.92+343.235L345.87+385.76L260.82+343.235L260.82+258.185L345.87+215.66L430.92+258.185Z" fill="none" stroke-linecap="round" opacity="1" stroke-linejoin="round"/>
<path stroke="#141414" stroke-width="20" d="M430.92+258.185L345.87+300.71L345.87+385.76L345.87+300.71L260.82+258.185" fill="none" stroke-linecap="round" opacity="1" stroke-linejoin="round"/>
</g>
<g opacity="1">
<path stroke="#141414" stroke-width="20" d="M930.92+258.185L930.92+343.235L845.87+385.76L760.82+343.235L760.82+258.185L845.87+215.66L930.92+258.185Z" fill="none" stroke-linecap="round" opacity="1" stroke-linejoin="round"/>
<path stroke="#141414" stroke-width="20" d="M930.92+258.185L845.87+300.71L845.87+385.76L845.87+300.71L760.82+258.185" fill="none" stroke-linecap="round" opacity="1" stroke-linejoin="round"/>
</g>
<path stroke="#141414" stroke-width="20" d="M595.97+335.66L595.97+285.76L595.97+335.66Z" fill="none" stroke-linecap="round" opacity="1" stroke-linejoin="round"/>
<path stroke="#141414" stroke-width="20" d="M595.97+555.66L595.97+505.76" fill="none" stroke-linecap="round" opacity="1" stroke-linejoin="round"/>
<path stroke="#141414" stroke-width="20" d="M345.87+465.76L345.87+385.76" fill="none" stroke-linecap="round" opacity="1" stroke-linejoin="round"/>
<path stroke="#141414" stroke-width="20" d="M845.87+465.76L845.87+385.76" fill="none" stroke-linecap="round" opacity="1" stroke-linejoin="round"/>
<path stroke="#141414" stroke-width="20" d="M690.92+625.76L760.82+593.335" fill="none" stroke-linecap="round" opacity="1" stroke-linejoin="round"/>
<path stroke="#141414" stroke-width="20" d="M510.92+635.297L430.92+593.335" fill="none" stroke-linecap="round" opacity="1" stroke-linejoin="round"/>
<path stroke="#141414" stroke-width="20" d="M430.92+284.81L510.92+243.235" fill="none" stroke-linecap="round" opacity="1" stroke-linejoin="round"/>
<path stroke="#141414" stroke-width="20" d="M760.82+283.443L681.02+243.235" fill="none" stroke-linecap="round" opacity="1" stroke-linejoin="round"/>
</g>
</g>
</svg>
